<svg xmlns="http://www.w3.org/2000/svg" width="1000" height="600" viewBox="0 0 1000 600"><defs><pattern id="grain" width="9" height="9" patternUnits="userSpaceOnUse"><circle cx="2" cy="3" r=".7" fill="#526461" opacity=".22"/></pattern><linearGradient id="sky" x2="0" y2="1"><stop stop-color="#c6d7d5"/><stop offset="1" stop-color="#f1e9d9"/></linearGradient></defs><rect width="1000" height="600" fill="url(#sky)"/><rect y="170" width="1000" height="430" fill="#a0b5aa"/><path d="M0 410h1000v190H0" fill="#7b918a"/><rect x="690" y="105" width="220" height="375" fill="#d8d3b5" stroke="#49615b" stroke-width="5"/><rect x="735" y="180" width="130" height="295" fill="#536d64"/><path d="M723 120h155v45H723" fill="#cd956c"/><g fill="#d8dfc6" stroke="#567568" stroke-width="3"><rect x="30" y="220" width="140" height="115"/><rect x="220" y="220" width="140" height="115"/></g><g transform="translate(520 423) scale(0.9 0.9)" stroke="#283e3e" stroke-width="6" stroke-linejoin="round" stroke-linecap="round"><g fill="none"><circle cx="-65" cy="55" r="48"/><circle cx="95" cy="55" r="48"/><path d="M-65 55l55-75 45 75h-100L-10-20h70l35 75M60-20l-8-24h20M-25-27h35"/></g><path d="M-10-35l23-95 55 20-28 56" fill="#ce855f"/><path d="M39-102l37 49 20 3M10-38l-21 45 42 50M6-24l49 24 7 47" fill="none"/><path d="M4-118l0-22 25-11 20 12-5 25" fill="#efd6b3"/><path d="M-1-135q18-42 53-3z" fill="#f0e9ce"/><path d="M29-114l10 0"/><rect x="-53" y="-102" width="38" height="49" rx="5" fill="#e2cd9f"/><path d="M-39-102v-13"/></g><path d="M0 505h1000" stroke="#d3d7bb" stroke-width="4"/><rect width="1000" height="600" fill="url(#grain)"/></svg>